<?xml version="1.0" encoding="utf-8"?>
<svg width="62px" height="62px" viewBox="0 0 62 62" version="1.1" xmlns:xlink="http://www.w3.org/1999/xlink" xmlns="http://www.w3.org/2000/svg">
  <desc>Created with Lunacy</desc>
  <defs>
    <path d="M0 30.7922C0 13.7862 13.6745 0 30.5426 0C47.4108 0 61.0849 13.7862 61.0849 30.7922C61.0849 47.7982 47.4108 61.5841 30.5426 61.5841C13.6745 61.5841 0 47.7982 0 30.7922ZM30.5426 11.9814C30.5426 11.9814 19.6229 20.3557 19.6229 30.6858C19.6229 41.0159 30.5426 49.3902 30.5426 49.3902C30.5426 49.3902 41.4623 41.0159 41.4623 30.6858C41.4623 20.3557 30.5426 11.9814 30.5426 11.9814ZM9.70228 43.9487C2.45695 36.6441 4.30483 22.9384 4.30483 22.9384C4.30483 22.9384 12.4578 21.8222 19.5011 24.7107C18.8376 26.5777 18.4215 28.584 18.4211 30.6858C18.4219 33.4858 19.1597 36.1171 20.2378 38.4738C21.0471 40.2428 22.0498 41.8619 23.0953 43.2999C24.6642 45.4565 26.3314 47.2069 27.6123 48.4265C28.0788 48.8709 28.4934 49.2436 28.8344 49.5402C24.9558 49.7673 15.3798 49.6729 9.70228 43.9487ZM51.383 43.9487C45.7051 49.6729 36.1291 49.7673 32.2509 49.5402C33.3195 48.6109 35.1199 46.9249 36.9348 44.6761C38.3463 42.925 39.7675 40.832 40.8471 38.4738C41.9252 36.1171 42.6634 33.4858 42.6638 30.6858C42.6634 28.584 42.2473 26.5777 41.5839 24.7107C48.6275 21.8222 56.7805 22.9384 56.7805 22.9384C56.7805 22.9384 58.6283 36.6441 51.383 43.9487Z" transform="translate(0 0.1389739)" id="path_1" />
    <clipPath id="mask_1">
      <use xlink:href="#path_1" />
    </clipPath>
  </defs>
  <g id="Group-2">
    <g id="Group-11" transform="translate(0.1553359 0)">
      <path d="M0 30.7922C0 13.7862 13.6745 0 30.5426 0C47.4108 0 61.0849 13.7862 61.0849 30.7922C61.0849 47.7982 47.4108 61.5841 30.5426 61.5841C13.6745 61.5841 0 47.7982 0 30.7922ZM30.5426 11.9814C30.5426 11.9814 19.6229 20.3557 19.6229 30.6858C19.6229 41.0159 30.5426 49.3902 30.5426 49.3902C30.5426 49.3902 41.4623 41.0159 41.4623 30.6858C41.4623 20.3557 30.5426 11.9814 30.5426 11.9814ZM9.70228 43.9487C2.45695 36.6441 4.30483 22.9384 4.30483 22.9384C4.30483 22.9384 12.4578 21.8222 19.5011 24.7107C18.8376 26.5777 18.4215 28.584 18.4211 30.6858C18.4219 33.4858 19.1597 36.1171 20.2378 38.4738C21.0471 40.2428 22.0498 41.8619 23.0953 43.2999C24.6642 45.4565 26.3314 47.2069 27.6123 48.4265C28.0788 48.8709 28.4934 49.2436 28.8344 49.5402C24.9558 49.7673 15.3798 49.6729 9.70228 43.9487ZM51.383 43.9487C45.7051 49.6729 36.1291 49.7673 32.2509 49.5402C33.3195 48.6109 35.1199 46.9249 36.9348 44.6761C38.3463 42.925 39.7675 40.832 40.8471 38.4738C41.9252 36.1171 42.6634 33.4858 42.6638 30.6858C42.6634 28.584 42.2473 26.5777 41.5839 24.7107C48.6275 21.8222 56.7805 22.9384 56.7805 22.9384C56.7805 22.9384 58.6283 36.6441 51.383 43.9487Z" transform="translate(0 0.1389739)" id="Clip-10" fill="none" fill-rule="evenodd" stroke="none" />
      <g clip-path="url(#mask_1)">
        <path d="M0 30.7922C0 13.7862 13.6745 0 30.5426 0C47.4108 0 61.0849 13.7862 61.0849 30.7922C61.0849 47.7982 47.4108 61.5841 30.5426 61.5841C13.6745 61.5841 0 47.7982 0 30.7922ZM30.5426 11.9814C30.5426 11.9814 19.6229 20.3557 19.6229 30.6858C19.6229 41.0159 30.5426 49.3902 30.5426 49.3902C30.5426 49.3902 41.4623 41.0159 41.4623 30.6858C41.4623 20.3557 30.5426 11.9814 30.5426 11.9814ZM9.70228 43.9487C2.45695 36.6441 4.30483 22.9384 4.30483 22.9384C4.30483 22.9384 12.4578 21.8222 19.5011 24.7107C18.8376 26.5777 18.4215 28.584 18.4211 30.6858C18.4219 33.4858 19.1597 36.1171 20.2378 38.4738C21.0471 40.2428 22.0498 41.8619 23.0953 43.2999C24.6642 45.4565 26.3314 47.2069 27.6123 48.4265C28.0788 48.8709 28.4934 49.2436 28.8344 49.5402C24.9558 49.7673 15.3798 49.6729 9.70228 43.9487ZM51.383 43.9487C45.7051 49.6729 36.1291 49.7673 32.2509 49.5402C33.3195 48.6109 35.1199 46.9249 36.9348 44.6761C38.3463 42.925 39.7675 40.832 40.8471 38.4738C41.9252 36.1171 42.6634 33.4858 42.6638 30.6858C42.6634 28.584 42.2473 26.5777 41.5839 24.7107C48.6275 21.8222 56.7805 22.9384 56.7805 22.9384C56.7805 22.9384 58.6283 36.6441 51.383 43.9487Z" transform="translate(0 0.1389739)" id="Fill-9" fill="#24AB73" fill-rule="evenodd" stroke="none" />
      </g>
    </g>
  </g>
</svg>